<svg xmlns="http://www.w3.org/2000/svg" xmlns:xlink="http://www.w3.org/1999/xlink" viewBox="0 0 1440 1024" width="1440" height="1024" style="width: 100%; height: 100%; transform: translate3d(0px, 0px, 0px); content-visibility: visible;" preserveAspectRatio="xMidYMid meet"><defs><clipPath id="__lottie_element_24"><rect width="1440" height="1024" x="0" y="0"></rect></clipPath><clipPath id="__lottie_element_26"><path d="M0,0 L1440,0 L1440,1024 L0,1024z"></path></clipPath><clipPath id="__lottie_element_30"><path d="M0,0 L1440,0 L1440,1024 L0,1024z"></path></clipPath><clipPath id="__lottie_element_34"><path d="M0,0 L800,0 L800,200 L0,200z"></path></clipPath><clipPath id="__lottie_element_38"><path d="M0,0 L800,0 L800,200 L0,200z"></path></clipPath><clipPath id="__lottie_element_48"><path d="M0,0 L800,0 L800,200 L0,200z"></path></clipPath><clipPath id="__lottie_element_52"><path d="M0,0 L800,0 L800,200 L0,200z"></path></clipPath><clipPath id="__lottie_element_56"><path d="M0,0 L800,0 L800,200 L0,200z"></path></clipPath><clipPath id="__lottie_element_60"><path d="M0,0 L800,0 L800,200 L0,200z"></path></clipPath><clipPath id="__lottie_element_211"><path d="M0,0 L800,0 L800,200 L0,200z"></path></clipPath><clipPath id="__lottie_element_224"><path d="M0,0 L800,0 L800,200 L0,200z"></path></clipPath><clipPath id="__lottie_element_264"><path d="M0,0 L800,0 L800,200 L0,200z"></path></clipPath><clipPath id="__lottie_element_277"><path d="M0,0 L800,0 L800,200 L0,200z"></path></clipPath><clipPath id="__lottie_element_287"><path d="M0,0 L800,0 L800,200 L0,200z"></path></clipPath><clipPath id="__lottie_element_291"><path d="M0,0 L800,0 L800,200 L0,200z"></path></clipPath><clipPath id="__lottie_element_328"><path d="M0,0 L800,0 L800,200 L0,200z"></path></clipPath><clipPath id="__lottie_element_335"><path d="M0,0 L800,0 L800,200 L0,200z"></path></clipPath><clipPath id="__lottie_element_369"><path d="M0,0 L1440,0 L1440,1024 L0,1024z"></path></clipPath><clipPath id="__lottie_element_373"><path d="M0,0 L800,0 L800,200 L0,200z"></path></clipPath><clipPath id="__lottie_element_377"><path d="M0,0 L800,0 L800,200 L0,200z"></path></clipPath><clipPath id="__lottie_element_390"><path d="M0,0 L800,0 L800,200 L0,200z"></path></clipPath><clipPath id="__lottie_element_403"><path d="M0,0 L800,0 L800,200 L0,200z"></path></clipPath><clipPath id="__lottie_element_419"><path d="M0,0 L800,0 L800,200 L0,200z"></path></clipPath><clipPath id="__lottie_element_426"><path d="M0,0 L800,0 L800,200 L0,200z"></path></clipPath><clipPath id="__lottie_element_433"><path d="M0,0 L800,0 L800,200 L0,200z"></path></clipPath><clipPath id="__lottie_element_437"><path d="M0,0 L800,0 L800,200 L0,200z"></path></clipPath><clipPath id="__lottie_element_459"><path d="M0,0 L800,0 L800,200 L0,200z"></path></clipPath><clipPath id="__lottie_element_466"><path d="M0,0 L800,0 L800,200 L0,200z"></path></clipPath></defs><g clip-path="url(#__lottie_element_24)"><g clip-path="url(#__lottie_element_26)" style="display: block;" transform="matrix(1,0,0,1,0,0)" opacity="1"><g clip-path="url(#__lottie_element_34)" style="display: block;" transform="matrix(-1,0,0,1,880,226)" opacity="1"><g style="display: block;" transform="matrix(1,0,0,1,213.62864685058594,45)" opacity="1"><g opacity="1" transform="matrix(1,0,0,1,32.275001525878906,54.569000244140625)"><path fill="rgb(12,13,29)" fill-opacity="1" d=" M28.725000381469727,-4.329999923706055 C32.05799865722656,-2.4059998989105225 32.05799865722656,2.4059998989105225 28.725000381469727,4.329999923706055 C28.725000381469727,4.329999923706055 -24.524999618530273,14.894000053405762 -24.524999618530273,14.894000053405762 C-27.857999801635742,16.819000244140625 -32.025001525878906,14.413000106811523 -32.025001525878906,10.564000129699707 C-32.025001525878906,10.564000129699707 -32.025001525878906,-10.564000129699707 -32.025001525878906,-10.564000129699707 C-32.025001525878906,-14.413000106811523 -27.857999801635742,-16.819000244140625 -24.524999618530273,-14.894000053405762 C-24.524999618530273,-14.894000053405762 28.725000381469727,-4.329999923706055 28.725000381469727,-4.329999923706055z"></path></g></g><g style="display: block;" transform="matrix(1,0,0,1,148.682373046875,45)" opacity="0.9556533333490127"><g opacity="1" transform="matrix(1,0,0,1,32.275001525878906,54.569000244140625)"><path fill="rgb(12,13,29)" fill-opacity="1" d=" M28.725000381469727,-4.329999923706055 C32.05799865722656,-2.4059998989105225 32.05799865722656,2.4059998989105225 28.725000381469727,4.329999923706055 C28.725000381469727,4.329999923706055 -24.524999618530273,14.894000053405762 -24.524999618530273,14.894000053405762 C-27.857999801635742,16.819000244140625 -32.025001525878906,14.413000106811523 -32.025001525878906,10.564000129699707 C-32.025001525878906,10.564000129699707 -32.025001525878906,-10.564000129699707 -32.025001525878906,-10.564000129699707 C-32.025001525878906,-14.413000106811523 -27.857999801635742,-16.819000244140625 -24.524999618530273,-14.894000053405762 C-24.524999618530273,-14.894000053405762 28.725000381469727,-4.329999923706055 28.725000381469727,-4.329999923706055z"></path></g></g><g style="display: block;" transform="matrix(1,0,0,1,128.13308715820312,45)" opacity="0.2223200000156794"><g opacity="1" transform="matrix(1,0,0,1,32.275001525878906,54.569000244140625)"><path fill="rgb(12,13,29)" fill-opacity="1" d=" M28.725000381469727,-4.329999923706055 C32.05799865722656,-2.4059998989105225 32.05799865722656,2.4059998989105225 28.725000381469727,4.329999923706055 C28.725000381469727,4.329999923706055 -24.524999618530273,14.894000053405762 -24.524999618530273,14.894000053405762 C-27.857999801635742,16.819000244140625 -32.025001525878906,14.413000106811523 -32.025001525878906,10.564000129699707 C-32.025001525878906,10.564000129699707 -32.025001525878906,-10.564000129699707 -32.025001525878906,-10.564000129699707 C-32.025001525878906,-14.413000106811523 -27.857999801635742,-16.819000244140625 -24.524999618530273,-14.894000053405762 C-24.524999618530273,-14.894000053405762 28.725000381469727,-4.329999923706055 28.725000381469727,-4.329999923706055z"></path></g></g></g><g clip-path="url(#__lottie_element_211)" style="display: block;" transform="matrix(-1,0,0,1,1108,25)" opacity="1"><g style="display: block;" transform="matrix(1,0,0,1,136.21380615234375,45)" opacity="0.6223200000156794"><g opacity="1" transform="matrix(1,0,0,1,32.275001525878906,54.569000244140625)"><path fill="rgb(12,13,29)" fill-opacity="1" d=" M28.725000381469727,-4.329999923706055 C32.05799865722656,-2.4059998989105225 32.05799865722656,2.4059998989105225 28.725000381469727,4.329999923706055 C28.725000381469727,4.329999923706055 -24.524999618530273,14.894000053405762 -24.524999618530273,14.894000053405762 C-27.857999801635742,16.819000244140625 -32.025001525878906,14.413000106811523 -32.025001525878906,10.564000129699707 C-32.025001525878906,10.564000129699707 -32.025001525878906,-10.564000129699707 -32.025001525878906,-10.564000129699707 C-32.025001525878906,-14.413000106811523 -27.857999801635742,-16.819000244140625 -24.524999618530273,-14.894000053405762 C-24.524999618530273,-14.894000053405762 28.725000381469727,-4.329999923706055 28.725000381469727,-4.329999923706055z"></path></g></g><g style="display: none;" transform="matrix(1,0,0,1,376.75201416015625,45)" opacity="1"><g opacity="1" transform="matrix(1,0,0,1,32.275001525878906,54.569000244140625)"><path fill="rgb(12,13,29)" fill-opacity="1" d=" M28.725000381469727,-4.329999923706055 C32.05799865722656,-2.4059998989105225 32.05799865722656,2.4059998989105225 28.725000381469727,4.329999923706055 C28.725000381469727,4.329999923706055 -24.524999618530273,52.39400100708008 -24.524999618530273,52.39400100708008 C-27.857999801635742,54.319000244140625 -32.025001525878906,51.91299819946289 -32.025001525878906,48.06399917602539 C-32.025001525878906,48.06399917602539 -32.025001525878906,-48.06399917602539 -32.025001525878906,-48.06399917602539 C-32.025001525878906,-51.91299819946289 -27.857999801635742,-54.319000244140625 -24.524999618530273,-52.39400100708008 C-24.524999618530273,-52.39400100708008 28.725000381469727,-4.329999923706055 28.725000381469727,-4.329999923706055z"></path></g></g><g style="display: none;" transform="matrix(1,0,0,1,312.9119873046875,45)" opacity="1"><g opacity="1" transform="matrix(1,0,0,1,32.275001525878906,54.569000244140625)"><path fill="rgb(12,13,29)" fill-opacity="1" d=" M28.725000381469727,-4.329999923706055 C32.05799865722656,-2.4059998989105225 32.05799865722656,2.4059998989105225 28.725000381469727,4.329999923706055 C28.725000381469727,4.329999923706055 -24.524999618530273,52.39400100708008 -24.524999618530273,52.39400100708008 C-27.857999801635742,54.319000244140625 -32.025001525878906,51.91299819946289 -32.025001525878906,48.06399917602539 C-32.025001525878906,48.06399917602539 -32.025001525878906,-48.06399917602539 -32.025001525878906,-48.06399917602539 C-32.025001525878906,-51.91299819946289 -27.857999801635742,-54.319000244140625 -24.524999618530273,-52.39400100708008 C-24.524999618530273,-52.39400100708008 28.725000381469727,-4.329999923706055 28.725000381469727,-4.329999923706055z"></path></g></g></g><g clip-path="url(#__lottie_element_287)" style="display: none;" transform="matrix(-0.800000011920929,0,0,0.800000011920929,1215,45)" opacity="1"><g style="display: block;" transform="matrix(1,0,0,1,385.0238342285156,45)" opacity="1"><g opacity="1" transform="matrix(1,0,0,1,32.275001525878906,54.569000244140625)"><path fill="rgb(12,13,29)" fill-opacity="1" d=" M28.725000381469727,-4.329999923706055 C32.05799865722656,-2.4059998989105225 32.05799865722656,2.4059998989105225 28.725000381469727,4.329999923706055 C28.725000381469727,4.329999923706055 -24.524999618530273,42.412227630615234 -24.524999618530273,42.412227630615234 C-27.857999801635742,44.33722686767578 -32.025001525878906,41.93122482299805 -32.025001525878906,38.08222579956055 C-32.025001525878906,38.08222579956055 -32.025001525878906,-38.08222579956055 -32.025001525878906,-38.08222579956055 C-32.025001525878906,-41.93122482299805 -27.857999801635742,-44.33722686767578 -24.524999618530273,-42.412227630615234 C-24.524999618530273,-42.412227630615234 28.725000381469727,-4.329999923706055 28.725000381469727,-4.329999923706055z"></path></g></g><g style="display: block;" transform="matrix(1,0,0,1,321.4197082519531,45)" opacity="1"><g opacity="1" transform="matrix(1,0,0,1,32.275001525878906,54.569000244140625)"><path fill="rgb(12,13,29)" fill-opacity="1" d=" M28.725000381469727,-4.329999923706055 C32.05799865722656,-2.4059998989105225 32.05799865722656,2.4059998989105225 28.725000381469727,4.329999923706055 C28.725000381469727,4.329999923706055 -24.524999618530273,14.894806861877441 -24.524999618530273,14.894806861877441 C-27.857999801635742,16.819807052612305 -32.025001525878906,14.413806915283203 -32.025001525878906,10.564806938171387 C-32.025001525878906,10.564806938171387 -32.025001525878906,-10.564806938171387 -32.025001525878906,-10.564806938171387 C-32.025001525878906,-14.413806915283203 -27.857999801635742,-16.819807052612305 -24.524999618530273,-14.894806861877441 C-24.524999618530273,-14.894806861877441 28.725000381469727,-4.329999923706055 28.725000381469727,-4.329999923706055z"></path></g></g></g><g clip-path="url(#__lottie_element_335)" style="display: none;" transform="matrix(-0.699999988079071,0,0,0.699999988079071,1052,154)" opacity="1"><g style="display: block;" transform="matrix(1,0,0,1,342.8734130859375,45)" opacity="1"><g opacity="1" transform="matrix(1,0,0,1,32.275001525878906,54.569000244140625)"><path fill="rgb(12,13,29)" fill-opacity="1" d=" M28.725000381469727,-4.329999923706055 C32.05799865722656,-2.4059998989105225 32.05799865722656,2.4059998989105225 28.725000381469727,4.329999923706055 C28.725000381469727,4.329999923706055 -24.524999618530273,14.894000053405762 -24.524999618530273,14.894000053405762 C-27.857999801635742,16.819000244140625 -32.025001525878906,14.413000106811523 -32.025001525878906,10.564000129699707 C-32.025001525878906,10.564000129699707 -32.025001525878906,-10.564000129699707 -32.025001525878906,-10.564000129699707 C-32.025001525878906,-14.413000106811523 -27.857999801635742,-16.819000244140625 -24.524999618530273,-14.894000053405762 C-24.524999618530273,-14.894000053405762 28.725000381469727,-4.329999923706055 28.725000381469727,-4.329999923706055z"></path></g></g></g><g clip-path="url(#__lottie_element_264)" style="display: none;" transform="matrix(-0.8999999761581421,0,0,0.8999999761581421,1041,236)" opacity="1"><g style="display: block;" transform="matrix(1,0,0,1,397.2461242675781,45)" opacity="1"><g opacity="1" transform="matrix(1,0,0,1,32.275001525878906,54.569000244140625)"><path fill="rgb(12,13,29)" fill-opacity="1" d=" M28.725000381469727,-4.329999923706055 C32.05799865722656,-2.4059998989105225 32.05799865722656,2.4059998989105225 28.725000381469727,4.329999923706055 C28.725000381469727,4.329999923706055 -24.524999618530273,49.20347595214844 -24.524999618530273,49.20347595214844 C-27.857999801635742,51.128475189208984 -32.025001525878906,48.72247314453125 -32.025001525878906,44.87347412109375 C-32.025001525878906,44.87347412109375 -32.025001525878906,-44.87347412109375 -32.025001525878906,-44.87347412109375 C-32.025001525878906,-48.72247314453125 -27.857999801635742,-51.128475189208984 -24.524999618530273,-49.20347595214844 C-24.524999618530273,-49.20347595214844 28.725000381469727,-4.329999923706055 28.725000381469727,-4.329999923706055z"></path></g></g><g style="display: block;" transform="matrix(1,0,0,1,333.6142578125,45)" opacity="1"><g opacity="1" transform="matrix(1,0,0,1,32.275001525878906,54.569000244140625)"><path fill="rgb(12,13,29)" fill-opacity="1" d=" M28.725000381469727,-4.329999923706055 C32.05799865722656,-2.4059998989105225 32.05799865722656,2.4059998989105225 28.725000381469727,4.329999923706055 C28.725000381469727,4.329999923706055 -24.524999618530273,36.57831573486328 -24.524999618530273,36.57831573486328 C-27.857999801635742,38.50331497192383 -32.025001525878906,36.09731674194336 -32.025001525878906,32.24831771850586 C-32.025001525878906,32.24831771850586 -32.025001525878906,-32.24831771850586 -32.025001525878906,-32.24831771850586 C-32.025001525878906,-36.09731674194336 -27.857999801635742,-38.50331497192383 -24.524999618530273,-36.57831573486328 C-24.524999618530273,-36.57831573486328 28.725000381469727,-4.329999923706055 28.725000381469727,-4.329999923706055z"></path></g></g></g><g clip-path="url(#__lottie_element_38)" style="display: block;" transform="matrix(-1,0,0,1,972,26)" opacity="1"><g style="display: block;" transform="matrix(1,0,0,1,213.62864685058594,45)" opacity="1"><g opacity="1" transform="matrix(1,0,0,1,32.275001525878906,54.569000244140625)"><path fill="rgb(12,13,29)" fill-opacity="1" d=" M28.725000381469727,-4.329999923706055 C32.05799865722656,-2.4059998989105225 32.05799865722656,2.4059998989105225 28.725000381469727,4.329999923706055 C28.725000381469727,4.329999923706055 -24.524999618530273,14.894000053405762 -24.524999618530273,14.894000053405762 C-27.857999801635742,16.819000244140625 -32.025001525878906,14.413000106811523 -32.025001525878906,10.564000129699707 C-32.025001525878906,10.564000129699707 -32.025001525878906,-10.564000129699707 -32.025001525878906,-10.564000129699707 C-32.025001525878906,-14.413000106811523 -27.857999801635742,-16.819000244140625 -24.524999618530273,-14.894000053405762 C-24.524999618530273,-14.894000053405762 28.725000381469727,-4.329999923706055 28.725000381469727,-4.329999923706055z"></path></g></g></g><g clip-path="url(#__lottie_element_224)" style="display: none;" transform="matrix(-1,0,0,1,922,518)" opacity="1"><g style="display: block;" transform="matrix(1,0,0,1,432.744873046875,45)" opacity="1"><g opacity="1" transform="matrix(1,0,0,1,32.275001525878906,54.569000244140625)"><path fill="rgb(12,13,29)" fill-opacity="1" d=" M28.725000381469727,-4.329999923706055 C32.05799865722656,-2.4059998989105225 32.05799865722656,2.4059998989105225 28.725000381469727,4.329999923706055 C28.725000381469727,4.329999923706055 -24.524999618530273,52.39400100708008 -24.524999618530273,52.39400100708008 C-27.857999801635742,54.319000244140625 -32.025001525878906,51.91299819946289 -32.025001525878906,48.06399917602539 C-32.025001525878906,48.06399917602539 -32.025001525878906,-48.06399917602539 -32.025001525878906,-48.06399917602539 C-32.025001525878906,-51.91299819946289 -27.857999801635742,-54.319000244140625 -24.524999618530273,-52.39400100708008 C-24.524999618530273,-52.39400100708008 28.725000381469727,-4.329999923706055 28.725000381469727,-4.329999923706055z"></path></g></g><g style="display: block;" transform="matrix(1,0,0,1,368.1794128417969,45)" opacity="1"><g opacity="1" transform="matrix(1,0,0,1,32.275001525878906,54.569000244140625)"><path fill="rgb(12,13,29)" fill-opacity="1" d=" M28.725000381469727,-4.329999923706055 C32.05799865722656,-2.4059998989105225 32.05799865722656,2.4059998989105225 28.725000381469727,4.329999923706055 C28.725000381469727,4.329999923706055 -24.524999618530273,52.39400100708008 -24.524999618530273,52.39400100708008 C-27.857999801635742,54.319000244140625 -32.025001525878906,51.91299819946289 -32.025001525878906,48.06399917602539 C-32.025001525878906,48.06399917602539 -32.025001525878906,-48.06399917602539 -32.025001525878906,-48.06399917602539 C-32.025001525878906,-51.91299819946289 -27.857999801635742,-54.319000244140625 -24.524999618530273,-52.39400100708008 C-24.524999618530273,-52.39400100708008 28.725000381469727,-4.329999923706055 28.725000381469727,-4.329999923706055z"></path></g></g><g style="display: block;" transform="matrix(1,0,0,1,304.9677734375,45)" opacity="1"><g opacity="1" transform="matrix(1,0,0,1,32.275001525878906,54.569000244140625)"><path fill="rgb(12,13,29)" fill-opacity="1" d=" M28.725000381469727,-4.329999923706055 C32.05799865722656,-2.4059998989105225 32.05799865722656,2.4059998989105225 28.725000381469727,4.329999923706055 C28.725000381469727,4.329999923706055 -24.524999618530273,52.15882110595703 -24.524999618530273,52.15882110595703 C-27.857999801635742,54.08382034301758 -32.025001525878906,51.67782211303711 -32.025001525878906,47.82882308959961 C-32.025001525878906,47.82882308959961 -32.025001525878906,-47.82882308959961 -32.025001525878906,-47.82882308959961 C-32.025001525878906,-51.67782211303711 -27.857999801635742,-54.08382034301758 -24.524999618530273,-52.15882110595703 C-24.524999618530273,-52.15882110595703 28.725000381469727,-4.329999923706055 28.725000381469727,-4.329999923706055z"></path></g></g></g><g clip-path="url(#__lottie_element_291)" style="display: none;" transform="matrix(-1,0,0,1,810,413)" opacity="1"><g style="display: block;" transform="matrix(1,0,0,1,385.0238342285156,45)" opacity="1"><g opacity="1" transform="matrix(1,0,0,1,32.275001525878906,54.569000244140625)"><path fill="rgb(12,13,29)" fill-opacity="1" d=" M28.725000381469727,-4.329999923706055 C32.05799865722656,-2.4059998989105225 32.05799865722656,2.4059998989105225 28.725000381469727,4.329999923706055 C28.725000381469727,4.329999923706055 -24.524999618530273,42.412227630615234 -24.524999618530273,42.412227630615234 C-27.857999801635742,44.33722686767578 -32.025001525878906,41.93122482299805 -32.025001525878906,38.08222579956055 C-32.025001525878906,38.08222579956055 -32.025001525878906,-38.08222579956055 -32.025001525878906,-38.08222579956055 C-32.025001525878906,-41.93122482299805 -27.857999801635742,-44.33722686767578 -24.524999618530273,-42.412227630615234 C-24.524999618530273,-42.412227630615234 28.725000381469727,-4.329999923706055 28.725000381469727,-4.329999923706055z"></path></g></g><g style="display: block;" transform="matrix(1,0,0,1,321.4197082519531,45)" opacity="1"><g opacity="1" transform="matrix(1,0,0,1,32.275001525878906,54.569000244140625)"><path fill="rgb(12,13,29)" fill-opacity="1" d=" M28.725000381469727,-4.329999923706055 C32.05799865722656,-2.4059998989105225 32.05799865722656,2.4059998989105225 28.725000381469727,4.329999923706055 C28.725000381469727,4.329999923706055 -24.524999618530273,14.894806861877441 -24.524999618530273,14.894806861877441 C-27.857999801635742,16.819807052612305 -32.025001525878906,14.413806915283203 -32.025001525878906,10.564806938171387 C-32.025001525878906,10.564806938171387 -32.025001525878906,-10.564806938171387 -32.025001525878906,-10.564806938171387 C-32.025001525878906,-14.413806915283203 -27.857999801635742,-16.819807052612305 -24.524999618530273,-14.894806861877441 C-24.524999618530273,-14.894806861877441 28.725000381469727,-4.329999923706055 28.725000381469727,-4.329999923706055z"></path></g></g><g style="display: block;" transform="matrix(1,0,0,1,259.9465026855469,45)" opacity="1"><g opacity="1" transform="matrix(1,0,0,1,32.275001525878906,54.569000244140625)"><path fill="rgb(12,13,29)" fill-opacity="1" d=" M28.725000381469727,-4.329999923706055 C32.05799865722656,-2.4059998989105225 32.05799865722656,2.4059998989105225 28.725000381469727,4.329999923706055 C28.725000381469727,4.329999923706055 -24.524999618530273,14.894000053405762 -24.524999618530273,14.894000053405762 C-27.857999801635742,16.819000244140625 -32.025001525878906,14.413000106811523 -32.025001525878906,10.564000129699707 C-32.025001525878906,10.564000129699707 -32.025001525878906,-10.564000129699707 -32.025001525878906,-10.564000129699707 C-32.025001525878906,-14.413000106811523 -27.857999801635742,-16.819000244140625 -24.524999618530273,-14.894000053405762 C-24.524999618530273,-14.894000053405762 28.725000381469727,-4.329999923706055 28.725000381469727,-4.329999923706055z"></path></g></g><g style="display: block;" transform="matrix(1,0,0,1,206.54888916015625,45)" opacity="1"><g opacity="1" transform="matrix(1,0,0,1,32.275001525878906,54.569000244140625)"><path fill="rgb(12,13,29)" fill-opacity="1" d=" M28.725000381469727,-4.329999923706055 C32.05799865722656,-2.4059998989105225 32.05799865722656,2.4059998989105225 28.725000381469727,4.329999923706055 C28.725000381469727,4.329999923706055 -24.524999618530273,14.894000053405762 -24.524999618530273,14.894000053405762 C-27.857999801635742,16.819000244140625 -32.025001525878906,14.413000106811523 -32.025001525878906,10.564000129699707 C-32.025001525878906,10.564000129699707 -32.025001525878906,-10.564000129699707 -32.025001525878906,-10.564000129699707 C-32.025001525878906,-14.413000106811523 -27.857999801635742,-16.819000244140625 -24.524999618530273,-14.894000053405762 C-24.524999618530273,-14.894000053405762 28.725000381469727,-4.329999923706055 28.725000381469727,-4.329999923706055z"></path></g></g></g><g clip-path="url(#__lottie_element_328)" style="display: none;" transform="matrix(-0.800000011920929,0,0,0.800000011920929,1209,333)" opacity="1"><g style="display: block;" transform="matrix(1,0,0,1,356.5103454589844,45)" opacity="1"><g opacity="1" transform="matrix(1,0,0,1,32.275001525878906,54.569000244140625)"><path fill="rgb(12,13,29)" fill-opacity="1" d=" M28.725000381469727,-4.329999923706055 C32.05799865722656,-2.4059998989105225 32.05799865722656,2.4059998989105225 28.725000381469727,4.329999923706055 C28.725000381469727,4.329999923706055 -24.524999618530273,14.894000053405762 -24.524999618530273,14.894000053405762 C-27.857999801635742,16.819000244140625 -32.025001525878906,14.413000106811523 -32.025001525878906,10.564000129699707 C-32.025001525878906,10.564000129699707 -32.025001525878906,-10.564000129699707 -32.025001525878906,-10.564000129699707 C-32.025001525878906,-14.413000106811523 -27.857999801635742,-16.819000244140625 -24.524999618530273,-14.894000053405762 C-24.524999618530273,-14.894000053405762 28.725000381469727,-4.329999923706055 28.725000381469727,-4.329999923706055z"></path></g></g></g><g clip-path="url(#__lottie_element_277)" style="display: none;" transform="matrix(-0.800000011920929,0,0,0.800000011920929,1115,435)" opacity="1"><g style="display: block;" transform="matrix(1,0,0,1,388.70611572265625,45)" opacity="1"><g opacity="1" transform="matrix(1,0,0,1,32.275001525878906,54.569000244140625)"><path fill="rgb(12,13,29)" fill-opacity="1" d=" M28.725000381469727,-4.329999923706055 C32.05799865722656,-2.4059998989105225 32.05799865722656,2.4059998989105225 28.725000381469727,4.329999923706055 C28.725000381469727,4.329999923706055 -24.524999618530273,45.03437042236328 -24.524999618530273,45.03437042236328 C-27.857999801635742,46.95936965942383 -32.025001525878906,44.55337142944336 -32.025001525878906,40.70437240600586 C-32.025001525878906,40.70437240600586 -32.025001525878906,-40.70437240600586 -32.025001525878906,-40.70437240600586 C-32.025001525878906,-44.55337142944336 -27.857999801635742,-46.95936965942383 -24.524999618530273,-45.03437042236328 C-24.524999618530273,-45.03437042236328 28.725000381469727,-4.329999923706055 28.725000381469727,-4.329999923706055z"></path></g></g><g style="display: block;" transform="matrix(1,0,0,1,325.1133117675781,45)" opacity="1"><g opacity="1" transform="matrix(1,0,0,1,32.275001525878906,54.569000244140625)"><path fill="rgb(12,13,29)" fill-opacity="1" d=" M28.725000381469727,-4.329999923706055 C32.05799865722656,-2.4059998989105225 32.05799865722656,2.4059998989105225 28.725000381469727,4.329999923706055 C28.725000381469727,4.329999923706055 -24.524999618530273,17.161151885986328 -24.524999618530273,17.161151885986328 C-27.857999801635742,19.086151123046875 -32.025001525878906,16.680150985717773 -32.025001525878906,12.831151008605957 C-32.025001525878906,12.831151008605957 -32.025001525878906,-12.831151008605957 -32.025001525878906,-12.831151008605957 C-32.025001525878906,-16.680150985717773 -27.857999801635742,-19.086151123046875 -24.524999618530273,-17.161151885986328 C-24.524999618530273,-17.161151885986328 28.725000381469727,-4.329999923706055 28.725000381469727,-4.329999923706055z"></path></g></g></g></g><g clip-path="url(#__lottie_element_369)" style="display: none;" transform="matrix(1,0,0,1,0,0)" opacity="1"><g clip-path="url(#__lottie_element_373)" style="display: block;" transform="matrix(-1,0,0,1,880,226)" opacity="1"><g style="display: block;" transform="matrix(1,0,0,1,465.5875244140625,45)" opacity="1"><g opacity="1" transform="matrix(1,0,0,1,32.275001525878906,54.569000244140625)"><path fill="rgb(12,13,29)" fill-opacity="1" d=" M28.725000381469727,-4.329999923706055 C32.05799865722656,-2.4059998989105225 32.05799865722656,2.4059998989105225 28.725000381469727,4.329999923706055 C28.725000381469727,4.329999923706055 -24.524999618530273,20.92292594909668 -24.524999618530273,20.92292594909668 C-27.857999801635742,22.847925186157227 -32.025001525878906,20.441925048828125 -32.025001525878906,16.592926025390625 C-32.025001525878906,16.592926025390625 -32.025001525878906,-16.592926025390625 -32.025001525878906,-16.592926025390625 C-32.025001525878906,-20.441925048828125 -27.857999801635742,-22.847925186157227 -24.524999618530273,-20.92292594909668 C-24.524999618530273,-20.92292594909668 28.725000381469727,-4.329999923706055 28.725000381469727,-4.329999923706055z"></path></g></g><g style="display: block;" transform="matrix(1,0,0,1,400.4363098144531,45)" opacity="1"><g opacity="1" transform="matrix(1,0,0,1,32.275001525878906,54.569000244140625)"><path fill="rgb(12,13,29)" fill-opacity="1" d=" M28.725000381469727,-4.329999923706055 C32.05799865722656,-2.4059998989105225 32.05799865722656,2.4059998989105225 28.725000381469727,4.329999923706055 C28.725000381469727,4.329999923706055 -24.524999618530273,28.95851707458496 -24.524999618530273,28.95851707458496 C-27.857999801635742,30.88351821899414 -32.025001525878906,28.47751808166504 -32.025001525878906,24.628517150878906 C-32.025001525878906,24.628517150878906 -32.025001525878906,-24.628517150878906 -32.025001525878906,-24.628517150878906 C-32.025001525878906,-28.47751808166504 -27.857999801635742,-30.88351821899414 -24.524999618530273,-28.95851707458496 C-24.524999618530273,-28.95851707458496 28.725000381469727,-4.329999923706055 28.725000381469727,-4.329999923706055z"></path></g></g><g style="display: block;" transform="matrix(1,0,0,1,335.232666015625,45)" opacity="1"><g opacity="1" transform="matrix(1,0,0,1,32.275001525878906,54.569000244140625)"><path fill="rgb(12,13,29)" fill-opacity="1" d=" M28.725000381469727,-4.329999923706055 C32.05799865722656,-2.4059998989105225 32.05799865722656,2.4059998989105225 28.725000381469727,4.329999923706055 C28.725000381469727,4.329999923706055 -24.524999618530273,36.38939666748047 -24.524999618530273,36.38939666748047 C-27.857999801635742,38.31439971923828 -32.025001525878906,35.90839767456055 -32.025001525878906,32.05939865112305 C-32.025001525878906,32.05939865112305 -32.025001525878906,-32.05939865112305 -32.025001525878906,-32.05939865112305 C-32.025001525878906,-35.90839767456055 -27.857999801635742,-38.31439971923828 -24.524999618530273,-36.38939666748047 C-24.524999618530273,-36.38939666748047 28.725000381469727,-4.329999923706055 28.725000381469727,-4.329999923706055z"></path></g></g></g><g clip-path="url(#__lottie_element_390)" style="display: block;" transform="matrix(-1,0,0,1,1108,25)" opacity="1"><g style="display: block;" transform="matrix(1,0,0,1,464.5464782714844,45)" opacity="1"><g opacity="1" transform="matrix(1,0,0,1,32.275001525878906,54.569000244140625)"><path fill="rgb(12,13,29)" fill-opacity="1" d=" M28.725000381469727,-4.329999923706055 C32.05799865722656,-2.4059998989105225 32.05799865722656,2.4059998989105225 28.725000381469727,4.329999923706055 C28.725000381469727,4.329999923706055 -24.524999618530273,43.054439544677734 -24.524999618530273,43.054439544677734 C-27.857999801635742,44.97943878173828 -32.025001525878906,42.57344055175781 -32.025001525878906,38.72444152832031 C-32.025001525878906,38.72444152832031 -32.025001525878906,-38.72444152832031 -32.025001525878906,-38.72444152832031 C-32.025001525878906,-42.57344055175781 -27.857999801635742,-44.97943878173828 -24.524999618530273,-43.054439544677734 C-24.524999618530273,-43.054439544677734 28.725000381469727,-4.329999923706055 28.725000381469727,-4.329999923706055z"></path></g></g><g style="display: block;" transform="matrix(1,0,0,1,399.1180725097656,45)" opacity="1"><g opacity="1" transform="matrix(1,0,0,1,32.275001525878906,54.569000244140625)"><path fill="rgb(12,13,29)" fill-opacity="1" d=" M28.725000381469727,-4.329999923706055 C32.05799865722656,-2.4059998989105225 32.05799865722656,2.4059998989105225 28.725000381469727,4.329999923706055 C28.725000381469727,4.329999923706055 -24.524999618530273,48.59893035888672 -24.524999618530273,48.59893035888672 C-27.857999801635742,50.523929595947266 -32.025001525878906,48.1179313659668 -32.025001525878906,44.2689323425293 C-32.025001525878906,44.2689323425293 -32.025001525878906,-44.2689323425293 -32.025001525878906,-44.2689323425293 C-32.025001525878906,-48.1179313659668 -27.857999801635742,-50.523929595947266 -24.524999618530273,-48.59893035888672 C-24.524999618530273,-48.59893035888672 28.725000381469727,-4.329999923706055 28.725000381469727,-4.329999923706055z"></path></g></g><g style="display: block;" transform="matrix(1,0,0,1,333.7878112792969,45)" opacity="1"><g opacity="1" transform="matrix(1,0,0,1,32.275001525878906,54.569000244140625)"><path fill="rgb(12,13,29)" fill-opacity="1" d=" M28.725000381469727,-4.329999923706055 C32.05799865722656,-2.4059998989105225 32.05799865722656,2.4059998989105225 28.725000381469727,4.329999923706055 C28.725000381469727,4.329999923706055 -24.524999618530273,52.11220932006836 -24.524999618530273,52.11220932006836 C-27.857999801635742,54.037208557128906 -32.025001525878906,51.63120651245117 -32.025001525878906,47.78220748901367 C-32.025001525878906,47.78220748901367 -32.025001525878906,-47.78220748901367 -32.025001525878906,-47.78220748901367 C-32.025001525878906,-51.63120651245117 -27.857999801635742,-54.037208557128906 -24.524999618530273,-52.11220932006836 C-24.524999618530273,-52.11220932006836 28.725000381469727,-4.329999923706055 28.725000381469727,-4.329999923706055z"></path></g></g></g><g clip-path="url(#__lottie_element_433)" style="display: block;" transform="matrix(-0.800000011920929,0,0,0.800000011920929,1215,45)" opacity="1"><g style="display: block;" transform="matrix(1,0,0,1,449.6004333496094,45)" opacity="1"><g opacity="1" transform="matrix(1,0,0,1,32.275001525878906,54.569000244140625)"><path fill="rgb(12,13,29)" fill-opacity="1" d=" M28.725000381469727,-4.329999923706055 C32.05799865722656,-2.4059998989105225 32.05799865722656,2.4059998989105225 28.725000381469727,4.329999923706055 C28.725000381469727,4.329999923706055 -24.524999618530273,52.39400100708008 -24.524999618530273,52.39400100708008 C-27.857999801635742,54.319000244140625 -32.025001525878906,51.91299819946289 -32.025001525878906,48.06399917602539 C-32.025001525878906,48.06399917602539 -32.025001525878906,-48.06399917602539 -32.025001525878906,-48.06399917602539 C-32.025001525878906,-51.91299819946289 -27.857999801635742,-54.319000244140625 -24.524999618530273,-52.39400100708008 C-24.524999618530273,-52.39400100708008 28.725000381469727,-4.329999923706055 28.725000381469727,-4.329999923706055z"></path></g></g><g style="display: block;" transform="matrix(1,0,0,1,384.3556823730469,45)" opacity="1"><g opacity="1" transform="matrix(1,0,0,1,32.275001525878906,54.569000244140625)"><path fill="rgb(12,13,29)" fill-opacity="1" d=" M28.725000381469727,-4.329999923706055 C32.05799865722656,-2.4059998989105225 32.05799865722656,2.4059998989105225 28.725000381469727,4.329999923706055 C28.725000381469727,4.329999923706055 -24.524999618530273,52.39400100708008 -24.524999618530273,52.39400100708008 C-27.857999801635742,54.319000244140625 -32.025001525878906,51.91299819946289 -32.025001525878906,48.06399917602539 C-32.025001525878906,48.06399917602539 -32.025001525878906,-48.06399917602539 -32.025001525878906,-48.06399917602539 C-32.025001525878906,-51.91299819946289 -27.857999801635742,-54.319000244140625 -24.524999618530273,-52.39400100708008 C-24.524999618530273,-52.39400100708008 28.725000381469727,-4.329999923706055 28.725000381469727,-4.329999923706055z"></path></g></g></g><g clip-path="url(#__lottie_element_466)" style="display: block;" transform="matrix(-0.699999988079071,0,0,0.699999988079071,1052,154)" opacity="1"><g style="display: block;" transform="matrix(1,0,0,1,437.3896789550781,45)" opacity="1"><g opacity="1" transform="matrix(1,0,0,1,32.275001525878906,54.569000244140625)"><path fill="rgb(12,13,29)" fill-opacity="1" d=" M28.725000381469727,-4.329999923706055 C32.05799865722656,-2.4059998989105225 32.05799865722656,2.4059998989105225 28.725000381469727,4.329999923706055 C28.725000381469727,4.329999923706055 -24.524999618530273,52.39400100708008 -24.524999618530273,52.39400100708008 C-27.857999801635742,54.319000244140625 -32.025001525878906,51.91299819946289 -32.025001525878906,48.06399917602539 C-32.025001525878906,48.06399917602539 -32.025001525878906,-48.06399917602539 -32.025001525878906,-48.06399917602539 C-32.025001525878906,-51.91299819946289 -27.857999801635742,-54.319000244140625 -24.524999618530273,-52.39400100708008 C-24.524999618530273,-52.39400100708008 28.725000381469727,-4.329999923706055 28.725000381469727,-4.329999923706055z"></path></g></g></g><g clip-path="url(#__lottie_element_419)" style="display: block;" transform="matrix(-0.8999999761581421,0,0,0.8999999761581421,1041,236)" opacity="1"><g style="display: block;" transform="matrix(1,0,0,1,453.2048034667969,45)" opacity="1"><g opacity="1" transform="matrix(1,0,0,1,32.275001525878906,54.569000244140625)"><path fill="rgb(12,13,29)" fill-opacity="1" d=" M28.725000381469727,-4.329999923706055 C32.05799865722656,-2.4059998989105225 32.05799865722656,2.4059998989105225 28.725000381469727,4.329999923706055 C28.725000381469727,4.329999923706055 -24.524999618530273,52.39400100708008 -24.524999618530273,52.39400100708008 C-27.857999801635742,54.319000244140625 -32.025001525878906,51.91299819946289 -32.025001525878906,48.06399917602539 C-32.025001525878906,48.06399917602539 -32.025001525878906,-48.06399917602539 -32.025001525878906,-48.06399917602539 C-32.025001525878906,-51.91299819946289 -27.857999801635742,-54.319000244140625 -24.524999618530273,-52.39400100708008 C-24.524999618530273,-52.39400100708008 28.725000381469727,-4.329999923706055 28.725000381469727,-4.329999923706055z"></path></g></g><g style="display: block;" transform="matrix(1,0,0,1,387.8279113769531,45)" opacity="1"><g opacity="1" transform="matrix(1,0,0,1,32.275001525878906,54.569000244140625)"><path fill="rgb(12,13,29)" fill-opacity="1" d=" M28.725000381469727,-4.329999923706055 C32.05799865722656,-2.4059998989105225 32.05799865722656,2.4059998989105225 28.725000381469727,4.329999923706055 C28.725000381469727,4.329999923706055 -24.524999618530273,52.39400100708008 -24.524999618530273,52.39400100708008 C-27.857999801635742,54.319000244140625 -32.025001525878906,51.91299819946289 -32.025001525878906,48.06399917602539 C-32.025001525878906,48.06399917602539 -32.025001525878906,-48.06399917602539 -32.025001525878906,-48.06399917602539 C-32.025001525878906,-51.91299819946289 -27.857999801635742,-54.319000244140625 -24.524999618530273,-52.39400100708008 C-24.524999618530273,-52.39400100708008 28.725000381469727,-4.329999923706055 28.725000381469727,-4.329999923706055z"></path></g></g></g><g clip-path="url(#__lottie_element_377)" style="display: block;" transform="matrix(-1,0,0,1,972,26)" opacity="1"><g style="display: block;" transform="matrix(1,0,0,1,465.5875244140625,45)" opacity="1"><g opacity="1" transform="matrix(1,0,0,1,32.275001525878906,54.569000244140625)"><path fill="rgb(12,13,29)" fill-opacity="1" d=" M28.725000381469727,-4.329999923706055 C32.05799865722656,-2.4059998989105225 32.05799865722656,2.4059998989105225 28.725000381469727,4.329999923706055 C28.725000381469727,4.329999923706055 -24.524999618530273,20.92292594909668 -24.524999618530273,20.92292594909668 C-27.857999801635742,22.847925186157227 -32.025001525878906,20.441925048828125 -32.025001525878906,16.592926025390625 C-32.025001525878906,16.592926025390625 -32.025001525878906,-16.592926025390625 -32.025001525878906,-16.592926025390625 C-32.025001525878906,-20.441925048828125 -27.857999801635742,-22.847925186157227 -24.524999618530273,-20.92292594909668 C-24.524999618530273,-20.92292594909668 28.725000381469727,-4.329999923706055 28.725000381469727,-4.329999923706055z"></path></g></g></g><g clip-path="url(#__lottie_element_403)" style="display: block;" transform="matrix(-1,0,0,1,922,518)" opacity="1"><g style="display: block;" transform="matrix(1,0,0,1,462.7848205566406,45)" opacity="1"><g opacity="1" transform="matrix(1,0,0,1,32.275001525878906,54.569000244140625)"><path fill="rgb(12,13,29)" fill-opacity="1" d=" M28.725000381469727,-4.329999923706055 C32.05799865722656,-2.4059998989105225 32.05799865722656,2.4059998989105225 28.725000381469727,4.329999923706055 C28.725000381469727,4.329999923706055 -24.524999618530273,52.36260223388672 -24.524999618530273,52.36260223388672 C-27.857999801635742,54.287601470947266 -32.025001525878906,51.88159942626953 -32.025001525878906,48.03260040283203 C-32.025001525878906,48.03260040283203 -32.025001525878906,-48.03260040283203 -32.025001525878906,-48.03260040283203 C-32.025001525878906,-51.88159942626953 -27.857999801635742,-54.287601470947266 -24.524999618530273,-52.36260223388672 C-24.524999618530273,-52.36260223388672 28.725000381469727,-4.329999923706055 28.725000381469727,-4.329999923706055z"></path></g></g><g style="display: block;" transform="matrix(1,0,0,1,397.2527160644531,45)" opacity="1"><g opacity="1" transform="matrix(1,0,0,1,32.275001525878906,54.569000244140625)"><path fill="rgb(12,13,29)" fill-opacity="1" d=" M28.725000381469727,-4.329999923706055 C32.05799865722656,-2.4059998989105225 32.05799865722656,2.4059998989105225 28.725000381469727,4.329999923706055 C28.725000381469727,4.329999923706055 -24.524999618530273,52.39400100708008 -24.524999618530273,52.39400100708008 C-27.857999801635742,54.319000244140625 -32.025001525878906,51.91299819946289 -32.025001525878906,48.06399917602539 C-32.025001525878906,48.06399917602539 -32.025001525878906,-48.06399917602539 -32.025001525878906,-48.06399917602539 C-32.025001525878906,-51.91299819946289 -27.857999801635742,-54.319000244140625 -24.524999618530273,-52.39400100708008 C-24.524999618530273,-52.39400100708008 28.725000381469727,-4.329999923706055 28.725000381469727,-4.329999923706055z"></path></g></g><g style="display: block;" transform="matrix(1,0,0,1,331.9500732421875,45)" opacity="1"><g opacity="1" transform="matrix(1,0,0,1,32.275001525878906,54.569000244140625)"><path fill="rgb(12,13,29)" fill-opacity="1" d=" M28.725000381469727,-4.329999923706055 C32.05799865722656,-2.4059998989105225 32.05799865722656,2.4059998989105225 28.725000381469727,4.329999923706055 C28.725000381469727,4.329999923706055 -24.524999618530273,52.39400100708008 -24.524999618530273,52.39400100708008 C-27.857999801635742,54.319000244140625 -32.025001525878906,51.91299819946289 -32.025001525878906,48.06399917602539 C-32.025001525878906,48.06399917602539 -32.025001525878906,-48.06399917602539 -32.025001525878906,-48.06399917602539 C-32.025001525878906,-51.91299819946289 -27.857999801635742,-54.319000244140625 -24.524999618530273,-52.39400100708008 C-24.524999618530273,-52.39400100708008 28.725000381469727,-4.329999923706055 28.725000381469727,-4.329999923706055z"></path></g></g></g><g clip-path="url(#__lottie_element_437)" style="display: block;" transform="matrix(-1,0,0,1,810,413)" opacity="1"><g style="display: block;" transform="matrix(1,0,0,1,449.6004333496094,45)" opacity="1"><g opacity="1" transform="matrix(1,0,0,1,32.275001525878906,54.569000244140625)"><path fill="rgb(12,13,29)" fill-opacity="1" d=" M28.725000381469727,-4.329999923706055 C32.05799865722656,-2.4059998989105225 32.05799865722656,2.4059998989105225 28.725000381469727,4.329999923706055 C28.725000381469727,4.329999923706055 -24.524999618530273,52.39400100708008 -24.524999618530273,52.39400100708008 C-27.857999801635742,54.319000244140625 -32.025001525878906,51.91299819946289 -32.025001525878906,48.06399917602539 C-32.025001525878906,48.06399917602539 -32.025001525878906,-48.06399917602539 -32.025001525878906,-48.06399917602539 C-32.025001525878906,-51.91299819946289 -27.857999801635742,-54.319000244140625 -24.524999618530273,-52.39400100708008 C-24.524999618530273,-52.39400100708008 28.725000381469727,-4.329999923706055 28.725000381469727,-4.329999923706055z"></path></g></g><g style="display: block;" transform="matrix(1,0,0,1,384.3556823730469,45)" opacity="1"><g opacity="1" transform="matrix(1,0,0,1,32.275001525878906,54.569000244140625)"><path fill="rgb(12,13,29)" fill-opacity="1" d=" M28.725000381469727,-4.329999923706055 C32.05799865722656,-2.4059998989105225 32.05799865722656,2.4059998989105225 28.725000381469727,4.329999923706055 C28.725000381469727,4.329999923706055 -24.524999618530273,52.39400100708008 -24.524999618530273,52.39400100708008 C-27.857999801635742,54.319000244140625 -32.025001525878906,51.91299819946289 -32.025001525878906,48.06399917602539 C-32.025001525878906,48.06399917602539 -32.025001525878906,-48.06399917602539 -32.025001525878906,-48.06399917602539 C-32.025001525878906,-51.91299819946289 -27.857999801635742,-54.319000244140625 -24.524999618530273,-52.39400100708008 C-24.524999618530273,-52.39400100708008 28.725000381469727,-4.329999923706055 28.725000381469727,-4.329999923706055z"></path></g></g><g style="display: block;" transform="matrix(1,0,0,1,319.927001953125,45)" opacity="1"><g opacity="1" transform="matrix(1,0,0,1,32.275001525878906,54.569000244140625)"><path fill="rgb(12,13,29)" fill-opacity="1" d=" M28.725000381469727,-4.329999923706055 C32.05799865722656,-2.4059998989105225 32.05799865722656,2.4059998989105225 28.725000381469727,4.329999923706055 C28.725000381469727,4.329999923706055 -24.524999618530273,52.39400100708008 -24.524999618530273,52.39400100708008 C-27.857999801635742,54.319000244140625 -32.025001525878906,51.91299819946289 -32.025001525878906,48.06399917602539 C-32.025001525878906,48.06399917602539 -32.025001525878906,-48.06399917602539 -32.025001525878906,-48.06399917602539 C-32.025001525878906,-51.91299819946289 -27.857999801635742,-54.319000244140625 -24.524999618530273,-52.39400100708008 C-24.524999618530273,-52.39400100708008 28.725000381469727,-4.329999923706055 28.725000381469727,-4.329999923706055z"></path></g></g><g style="display: block;" transform="matrix(1,0,0,1,257.34893798828125,45)" opacity="1"><g opacity="1" transform="matrix(1,0,0,1,32.275001525878906,54.569000244140625)"><path fill="rgb(12,13,29)" fill-opacity="1" d=" M28.725000381469727,-4.329999923706055 C32.05799865722656,-2.4059998989105225 32.05799865722656,2.4059998989105225 28.725000381469727,4.329999923706055 C28.725000381469727,4.329999923706055 -24.524999618530273,52.39400100708008 -24.524999618530273,52.39400100708008 C-27.857999801635742,54.319000244140625 -32.025001525878906,51.91299819946289 -32.025001525878906,48.06399917602539 C-32.025001525878906,48.06399917602539 -32.025001525878906,-48.06399917602539 -32.025001525878906,-48.06399917602539 C-32.025001525878906,-51.91299819946289 -27.857999801635742,-54.319000244140625 -24.524999618530273,-52.39400100708008 C-24.524999618530273,-52.39400100708008 28.725000381469727,-4.329999923706055 28.725000381469727,-4.329999923706055z"></path></g></g></g><g clip-path="url(#__lottie_element_459)" style="display: block;" transform="matrix(-0.800000011920929,0,0,0.800000011920929,1209,333)" opacity="1"><g style="display: block;" transform="matrix(1,0,0,1,441.2511291503906,45)" opacity="1"><g opacity="1" transform="matrix(1,0,0,1,32.275001525878906,54.569000244140625)"><path fill="rgb(12,13,29)" fill-opacity="1" d=" M28.725000381469727,-4.329999923706055 C32.05799865722656,-2.4059998989105225 32.05799865722656,2.4059998989105225 28.725000381469727,4.329999923706055 C28.725000381469727,4.329999923706055 -24.524999618530273,52.39400100708008 -24.524999618530273,52.39400100708008 C-27.857999801635742,54.319000244140625 -32.025001525878906,51.91299819946289 -32.025001525878906,48.06399917602539 C-32.025001525878906,48.06399917602539 -32.025001525878906,-48.06399917602539 -32.025001525878906,-48.06399917602539 C-32.025001525878906,-51.91299819946289 -27.857999801635742,-54.319000244140625 -24.524999618530273,-52.39400100708008 C-24.524999618530273,-52.39400100708008 28.725000381469727,-4.329999923706055 28.725000381469727,-4.329999923706055z"></path></g></g></g><g clip-path="url(#__lottie_element_426)" style="display: block;" transform="matrix(-0.800000011920929,0,0,0.800000011920929,1115,435)" opacity="1"><g style="display: block;" transform="matrix(1,0,0,1,450.68939208984375,45)" opacity="1"><g opacity="1" transform="matrix(1,0,0,1,32.275001525878906,54.569000244140625)"><path fill="rgb(12,13,29)" fill-opacity="1" d=" M28.725000381469727,-4.329999923706055 C32.05799865722656,-2.4059998989105225 32.05799865722656,2.4059998989105225 28.725000381469727,4.329999923706055 C28.725000381469727,4.329999923706055 -24.524999618530273,52.39400100708008 -24.524999618530273,52.39400100708008 C-27.857999801635742,54.319000244140625 -32.025001525878906,51.91299819946289 -32.025001525878906,48.06399917602539 C-32.025001525878906,48.06399917602539 -32.025001525878906,-48.06399917602539 -32.025001525878906,-48.06399917602539 C-32.025001525878906,-51.91299819946289 -27.857999801635742,-54.319000244140625 -24.524999618530273,-52.39400100708008 C-24.524999618530273,-52.39400100708008 28.725000381469727,-4.329999923706055 28.725000381469727,-4.329999923706055z"></path></g></g><g style="display: block;" transform="matrix(1,0,0,1,385.4032287597656,45)" opacity="1"><g opacity="1" transform="matrix(1,0,0,1,32.275001525878906,54.569000244140625)"><path fill="rgb(12,13,29)" fill-opacity="1" d=" M28.725000381469727,-4.329999923706055 C32.05799865722656,-2.4059998989105225 32.05799865722656,2.4059998989105225 28.725000381469727,4.329999923706055 C28.725000381469727,4.329999923706055 -24.524999618530273,52.39400100708008 -24.524999618530273,52.39400100708008 C-27.857999801635742,54.319000244140625 -32.025001525878906,51.91299819946289 -32.025001525878906,48.06399917602539 C-32.025001525878906,48.06399917602539 -32.025001525878906,-48.06399917602539 -32.025001525878906,-48.06399917602539 C-32.025001525878906,-51.91299819946289 -27.857999801635742,-54.319000244140625 -24.524999618530273,-52.39400100708008 C-24.524999618530273,-52.39400100708008 28.725000381469727,-4.329999923706055 28.725000381469727,-4.329999923706055z"></path></g></g></g></g><g clip-path="url(#__lottie_element_30)" style="display: block;" transform="matrix(1,0,0,1,0,0)" opacity="1"><g clip-path="url(#__lottie_element_48)" style="display: none;" transform="matrix(-0.800000011920929,0,0,0.800000011920929,1215,45)" opacity="1"><g style="display: none;"><g><path></path></g></g><g style="display: none;"><g><path></path></g></g></g><g clip-path="url(#__lottie_element_52)" style="display: none;" transform="matrix(-0.699999988079071,0,0,0.699999988079071,1052,154)" opacity="1"><g style="display: none;" transform="matrix(1,0,0,1,605.4947509765625,45)" opacity="0.04005333331676113"><g opacity="1" transform="matrix(1,0,0,1,32.275001525878906,54.569000244140625)"><path fill="rgb(12,13,29)" fill-opacity="1" d=" M28.725000381469727,-4.329999923706055 C32.05799865722656,-2.4059998989105225 32.05799865722656,2.4059998989105225 28.725000381469727,4.329999923706055 C28.725000381469727,4.329999923706055 -24.524999618530273,14.894000053405762 -24.524999618530273,14.894000053405762 C-27.857999801635742,16.819000244140625 -32.025001525878906,14.413000106811523 -32.025001525878906,10.564000129699707 C-32.025001525878906,10.564000129699707 -32.025001525878906,-10.564000129699707 -32.025001525878906,-10.564000129699707 C-32.025001525878906,-14.413000106811523 -27.857999801635742,-16.819000244140625 -24.524999618530273,-14.894000053405762 C-24.524999618530273,-14.894000053405762 28.725000381469727,-4.329999923706055 28.725000381469727,-4.329999923706055z"></path></g></g></g><g clip-path="url(#__lottie_element_56)" style="display: none;" transform="matrix(-1,0,0,1,810,413)" opacity="1"><g style="display: none;"><g><path></path></g></g><g style="display: none;"><g><path></path></g></g><g style="display: none;"><g><path></path></g></g><g style="display: block;" transform="matrix(1,0,0,1,600.0662231445312,45)" opacity="0.04005333331676113"><g opacity="1" transform="matrix(1,0,0,1,32.275001525878906,54.569000244140625)"><path fill="rgb(12,13,29)" fill-opacity="1" d=" M28.725000381469727,-4.329999923706055 C32.05799865722656,-2.4059998989105225 32.05799865722656,2.4059998989105225 28.725000381469727,4.329999923706055 C28.725000381469727,4.329999923706055 -24.524999618530273,14.894000053405762 -24.524999618530273,14.894000053405762 C-27.857999801635742,16.819000244140625 -32.025001525878906,14.413000106811523 -32.025001525878906,10.564000129699707 C-32.025001525878906,10.564000129699707 -32.025001525878906,-10.564000129699707 -32.025001525878906,-10.564000129699707 C-32.025001525878906,-14.413000106811523 -27.857999801635742,-16.819000244140625 -24.524999618530273,-14.894000053405762 C-24.524999618530273,-14.894000053405762 28.725000381469727,-4.329999923706055 28.725000381469727,-4.329999923706055z"></path></g></g></g><g clip-path="url(#__lottie_element_60)" style="display: none;" transform="matrix(-0.800000011920929,0,0,0.800000011920929,1209,333)" opacity="1"><g style="display: none;"><g><path></path></g></g></g></g></g></svg>