<svg width="118" height="32" viewBox="0 0 118 32" fill="none" xmlns="http://www.w3.org/2000/svg">
<g clip-path="url(#clip0_565_3718)">
<path fill-rule="evenodd" clip-rule="evenodd" d="M34 21.3333L23.3333 10.6667L34 0V21.3333ZM2 10.6667L12.6667 0H34L44.6667 10.6667L34 21.3333L23.3333 32L2 10.6667Z" fill="#0D62FF"/>
<path d="M90.667 26.6667H94.9949V17.431C94.9949 15.3497 96.3063 14.309 98.0113 14.309C99.585 14.309 100.503 15.2196 100.503 17.1708V26.6667H104.831V17.431C104.831 15.3497 106.142 14.309 107.847 14.309C109.421 14.309 110.339 15.2196 110.339 17.1708V26.6667H114.667V16.6505C114.667 12.4879 112.437 10.6667 109.552 10.6667C107.585 10.6667 105.487 11.4472 104.306 13.3985C103.519 11.7074 101.946 10.7968 99.8473 10.7968C97.4867 10.7968 95.7817 12.0976 94.9949 13.5285V11.1871H90.667V26.6667Z" fill="#17181A"/>
<path d="M77.3326 17.3334C77.7326 15.0667 79.0656 13.7334 80.9319 13.7334C83.0647 13.7334 84.2645 14.9334 84.3978 17.3334H77.3326ZM81.0652 27.3334C85.4642 27.3334 88.1303 25.4668 88.6635 22.0001H84.5311C84.2645 23.3334 83.198 24.2668 81.1985 24.2668C78.799 24.2668 77.3326 22.8001 77.1993 20.1334H88.6635V18.9334C88.7968 13.0667 85.0643 10.6667 80.9319 10.6667C76.2662 10.6667 72.667 13.8667 72.667 18.9334V19.2001C72.8003 24.2667 76.2662 27.3334 81.0652 27.3334Z" fill="#17181A"/>
<path d="M61.0667 26.6667C67.6 26.6667 71.3333 22.8916 71.3333 17.1638V14.9508H61.6V18.4656H66.5333C66.4 20.9389 64.9333 23.0218 61.3333 23.0218C57.0667 23.0218 55.2 20.0277 55.2 15.9922V15.6017C55.2 11.3058 57.4667 8.4419 61.2 8.4419C63.8667 8.4419 65.4667 9.61349 65.8667 12.0869H70.8C70.2667 6.87977 66 4.66675 61.0667 4.66675C54.6667 4.66675 50 9.09278 50 15.4715V15.7318C50 22.1105 54 26.6667 61.0667 26.6667Z" fill="#17181A"/>
</g>
<defs>
<clipPath id="clip0_565_3718">
<rect width="112.667" height="32" fill="white" transform="translate(2)"/>
</clipPath>
</defs>
</svg>
