<svg version="1.1" xmlns="http://www.w3.org/2000/svg" xmlns:xlink="http://www.w3.org/1999/xlink"
    width="828" height="519">
    <defs>
        <clipPath id="gcRDndsazsJU">
            <path fill="none" stroke="none" d=" M 0 0 L 828 0 L 828 519 L 0 519 L 0 0 Z" />
        </clipPath>
    </defs>
    <g transform="scale(1,1)" clip-path="url(#gcRDndsazsJU)">
        <g>
            <path fill="none" stroke="rgb(204,102,255)" paint-order="fill stroke markers"
                d=" M 313.9999999999999 208.49999999999991 L 413.99999999999983 258.49999999999994"
                stroke-opacity="0.6980392156862745" stroke-linecap="round" stroke-linejoin="round"
                stroke-miterlimit="10" stroke-width="2.5" />
            <path fill="none" stroke="rgb(0,153,255)" paint-order="fill stroke markers"
                d=" M 313.9999999999999 308.5 L 413.99999999999983 258.49999999999994"
                stroke-opacity="0.6980392156862745" stroke-linecap="round" stroke-linejoin="round"
                stroke-miterlimit="10" stroke-width="2.5" />
            <path fill="none" stroke="rgb(204,102,255)" paint-order="fill stroke markers"
                d=" M 413.99999999999983 258.49999999999994 L 513.9999999999998 208.49999999999991"
                stroke-opacity="0.6980392156862745" stroke-linecap="round" stroke-linejoin="round"
                stroke-miterlimit="10" stroke-width="2.5" />
            <path fill="none" stroke="rgb(0,153,255)" paint-order="fill stroke markers"
                d=" M 413.99999999999983 258.49999999999994 L 513.9999999999998 308.5"
                stroke-opacity="0.6980392156862745" stroke-linecap="round" stroke-linejoin="round"
                stroke-miterlimit="10" stroke-width="2.5" />
            <path fill="none" stroke="rgb(204,255,102)" paint-order="fill stroke markers"
                d=" M 413.99999999999983 258.49999999999994 L 413.99999999999983 458.5000000000001"
                stroke-opacity="0.6980392156862745" stroke-linecap="round" stroke-linejoin="round"
                stroke-miterlimit="10" stroke-width="2.5" />
            <path fill="rgb(21,101,192)" stroke="none" paint-order="stroke fill markers"
                d=" M 318.9999999999999 208.49999999999991 C 318.9999999999999 211.2614237491539 316.76142374915383 213.49999999999991 313.9999999999999 213.49999999999991 C 311.23857625084594 213.49999999999991 308.9999999999999 211.2614237491539 308.9999999999999 208.49999999999991 C 308.9999999999999 205.73857625084594 311.23857625084594 203.49999999999991 313.9999999999999 203.49999999999991 C 316.76142374915383 203.49999999999991 318.9999999999999 205.73857625084594 318.9999999999999 208.49999999999991 Z"
                fill-opacity="1" />
            <path fill="none" stroke="rgb(0,0,0)" paint-order="fill stroke markers"
                d=" M 318.9999999999999 208.49999999999991 C 318.9999999999999 211.2614237491539 316.76142374915383 213.49999999999991 313.9999999999999 213.49999999999991 C 311.23857625084594 213.49999999999991 308.9999999999999 211.2614237491539 308.9999999999999 208.49999999999991 C 308.9999999999999 205.73857625084594 311.23857625084594 203.49999999999991 313.9999999999999 203.49999999999991 C 316.76142374915383 203.49999999999991 318.9999999999999 205.73857625084594 318.9999999999999 208.49999999999991 Z"
                stroke-opacity="1" stroke-linecap="round" stroke-linejoin="round"
                stroke-miterlimit="10" />
            <path fill="rgb(204,255,102)" stroke="none" paint-order="stroke fill markers"
                d=" M 418.99999999999983 258.49999999999994 C 418.99999999999983 261.2614237491539 416.7614237491538 263.49999999999994 413.99999999999983 263.49999999999994 C 411.2385762508459 263.49999999999994 408.99999999999983 261.2614237491539 408.99999999999983 258.49999999999994 C 408.99999999999983 255.73857625084597 411.2385762508459 253.49999999999994 413.99999999999983 253.49999999999994 C 416.7614237491538 253.49999999999994 418.99999999999983 255.73857625084597 418.99999999999983 258.49999999999994 Z"
                fill-opacity="1" />
            <path fill="none" stroke="rgb(0,0,0)" paint-order="fill stroke markers"
                d=" M 418.99999999999983 258.49999999999994 C 418.99999999999983 261.2614237491539 416.7614237491538 263.49999999999994 413.99999999999983 263.49999999999994 C 411.2385762508459 263.49999999999994 408.99999999999983 261.2614237491539 408.99999999999983 258.49999999999994 C 408.99999999999983 255.73857625084597 411.2385762508459 253.49999999999994 413.99999999999983 253.49999999999994 C 416.7614237491538 253.49999999999994 418.99999999999983 255.73857625084597 418.99999999999983 258.49999999999994 Z"
                stroke-opacity="1" stroke-linecap="round" stroke-linejoin="round"
                stroke-miterlimit="10" />
            <path fill="rgb(21,101,192)" stroke="none" paint-order="stroke fill markers"
                d=" M 318.9999999999999 308.5 C 318.9999999999999 311.26142374915395 316.76142374915383 313.5 313.9999999999999 313.5 C 311.23857625084594 313.5 308.9999999999999 311.26142374915395 308.9999999999999 308.5 C 308.9999999999999 305.73857625084605 311.23857625084594 303.5 313.9999999999999 303.5 C 316.76142374915383 303.5 318.9999999999999 305.73857625084605 318.9999999999999 308.5 Z"
                fill-opacity="1" />
            <path fill="none" stroke="rgb(0,0,0)" paint-order="fill stroke markers"
                d=" M 318.9999999999999 308.5 C 318.9999999999999 311.26142374915395 316.76142374915383 313.5 313.9999999999999 313.5 C 311.23857625084594 313.5 308.9999999999999 311.26142374915395 308.9999999999999 308.5 C 308.9999999999999 305.73857625084605 311.23857625084594 303.5 313.9999999999999 303.5 C 316.76142374915383 303.5 318.9999999999999 305.73857625084605 318.9999999999999 308.5 Z"
                stroke-opacity="1" stroke-linecap="round" stroke-linejoin="round"
                stroke-miterlimit="10" />
            <path fill="rgb(21,101,192)" stroke="none" paint-order="stroke fill markers"
                d=" M 518.9999999999998 208.49999999999991 C 518.9999999999998 211.2614237491539 516.7614237491538 213.49999999999991 513.9999999999998 213.49999999999991 C 511.2385762508458 213.49999999999991 508.9999999999998 211.2614237491539 508.9999999999998 208.49999999999991 C 508.9999999999998 205.73857625084594 511.2385762508458 203.49999999999991 513.9999999999998 203.49999999999991 C 516.7614237491538 203.49999999999991 518.9999999999998 205.73857625084594 518.9999999999998 208.49999999999991 Z"
                fill-opacity="1" />
            <path fill="none" stroke="rgb(0,0,0)" paint-order="fill stroke markers"
                d=" M 518.9999999999998 208.49999999999991 C 518.9999999999998 211.2614237491539 516.7614237491538 213.49999999999991 513.9999999999998 213.49999999999991 C 511.2385762508458 213.49999999999991 508.9999999999998 211.2614237491539 508.9999999999998 208.49999999999991 C 508.9999999999998 205.73857625084594 511.2385762508458 203.49999999999991 513.9999999999998 203.49999999999991 C 516.7614237491538 203.49999999999991 518.9999999999998 205.73857625084594 518.9999999999998 208.49999999999991 Z"
                stroke-opacity="1" stroke-linecap="round" stroke-linejoin="round"
                stroke-miterlimit="10" />
            <path fill="rgb(21,101,192)" stroke="none" paint-order="stroke fill markers"
                d=" M 518.9999999999998 308.5 C 518.9999999999998 311.26142374915395 516.7614237491538 313.5 513.9999999999998 313.5 C 511.2385762508458 313.5 508.9999999999998 311.26142374915395 508.9999999999998 308.5 C 508.9999999999998 305.73857625084605 511.2385762508458 303.5 513.9999999999998 303.5 C 516.7614237491538 303.5 518.9999999999998 305.73857625084605 518.9999999999998 308.5 Z"
                fill-opacity="1" />
            <path fill="none" stroke="rgb(0,0,0)" paint-order="fill stroke markers"
                d=" M 518.9999999999998 308.5 C 518.9999999999998 311.26142374915395 516.7614237491538 313.5 513.9999999999998 313.5 C 511.2385762508458 313.5 508.9999999999998 311.26142374915395 508.9999999999998 308.5 C 508.9999999999998 305.73857625084605 511.2385762508458 303.5 513.9999999999998 303.5 C 516.7614237491538 303.5 518.9999999999998 305.73857625084605 518.9999999999998 308.5 Z"
                stroke-opacity="1" stroke-linecap="round" stroke-linejoin="round"
                stroke-miterlimit="10" />
            <path fill="rgb(21,101,192)" stroke="none" paint-order="stroke fill markers"
                d=" M 418.99999999999983 458.5000000000001 C 418.99999999999983 461.26142374915406 416.7614237491538 463.5000000000001 413.99999999999983 463.5000000000001 C 411.2385762508459 463.5000000000001 408.99999999999983 461.26142374915406 408.99999999999983 458.5000000000001 C 408.99999999999983 455.73857625084617 411.2385762508459 453.5000000000001 413.99999999999983 453.5000000000001 C 416.7614237491538 453.5000000000001 418.99999999999983 455.73857625084617 418.99999999999983 458.5000000000001 Z"
                fill-opacity="1" />
            <path fill="none" stroke="rgb(0,0,0)" paint-order="fill stroke markers"
                d=" M 418.99999999999983 458.5000000000001 C 418.99999999999983 461.26142374915406 416.7614237491538 463.5000000000001 413.99999999999983 463.5000000000001 C 411.2385762508459 463.5000000000001 408.99999999999983 461.26142374915406 408.99999999999983 458.5000000000001 C 408.99999999999983 455.73857625084617 411.2385762508459 453.5000000000001 413.99999999999983 453.5000000000001 C 416.7614237491538 453.5000000000001 418.99999999999983 455.73857625084617 418.99999999999983 458.5000000000001 Z"
                stroke-opacity="1" stroke-linecap="round" stroke-linejoin="round"
                stroke-miterlimit="10" />
        </g>
    </g>
</svg>